<svg width="83" height="24" viewBox="0 0 83 24" fill="none" xmlns="http://www.w3.org/2000/svg">
<path d="M32.875 10.2V19.6666C32.875 19.8434 32.9408 20.013 33.0581 20.138C33.1753 20.263 33.3342 20.3333 33.5 20.3333H43.5C43.6658 20.3333 43.8247 20.263 43.9419 20.138C44.0592 20.013 44.125 19.8434 44.125 19.6666V10.2H32.875Z" stroke="black" stroke-width="1.5" stroke-linejoin="round"/>
<path d="M44.125 10.2L42.3541 7.66663H34.6459L32.875 10.2M40.8609 12.4C40.8609 13.7993 39.8041 14.9333 38.5 14.9333C37.1959 14.9333 36.1388 13.7993 36.1388 12.4" stroke="black" stroke-width="1.5" stroke-linecap="round" stroke-linejoin="round"/>
<path d="M64.2074 3.54545V21H60.517V3.54545H64.2074ZM67.2988 6.58807V3.54545H81.6341V6.58807H76.2903V21H72.6426V6.58807H67.2988Z" fill="#0588D9"/>
<path d="M10.9858 8.56534C10.9176 7.87784 10.625 7.34375 10.108 6.96307C9.59091 6.58239 8.8892 6.39204 8.00284 6.39204C7.40057 6.39204 6.89205 6.47727 6.47727 6.64773C6.0625 6.8125 5.74432 7.04261 5.52273 7.33807C5.30682 7.63352 5.19886 7.96875 5.19886 8.34375C5.1875 8.65625 5.25284 8.92898 5.39489 9.16193C5.54261 9.39489 5.74432 9.59659 6 9.76705C6.25568 9.93182 6.55114 10.0767 6.88636 10.2017C7.22159 10.321 7.57955 10.4233 7.96023 10.5085L9.52841 10.8835C10.2898 11.054 10.9886 11.2812 11.625 11.5653C12.2614 11.8494 12.8125 12.1989 13.2784 12.6136C13.7443 13.0284 14.1051 13.517 14.3608 14.0795C14.6222 14.642 14.7557 15.2869 14.7614 16.0142C14.7557 17.0824 14.483 18.0085 13.9432 18.7926C13.4091 19.571 12.6364 20.1761 11.625 20.608C10.6193 21.0341 9.40625 21.2472 7.9858 21.2472C6.5767 21.2472 5.34943 21.0312 4.30398 20.5994C3.2642 20.1676 2.4517 19.5284 1.86648 18.6818C1.28693 17.8295 0.982955 16.7756 0.954545 15.5199H4.52557C4.56534 16.1051 4.73295 16.5937 5.02841 16.9858C5.32955 17.3722 5.73011 17.6648 6.23011 17.8636C6.7358 18.0568 7.30682 18.1534 7.94318 18.1534C8.56818 18.1534 9.1108 18.0625 9.57102 17.8807C10.0369 17.6989 10.3977 17.446 10.6534 17.1222C10.9091 16.7983 11.0369 16.4261 11.0369 16.0057C11.0369 15.6136 10.9205 15.2841 10.6875 15.017C10.4602 14.75 10.125 14.5227 9.68182 14.3352C9.24432 14.1477 8.70739 13.9773 8.07102 13.8239L6.17045 13.3466C4.69886 12.9886 3.53693 12.429 2.68466 11.6676C1.83239 10.9062 1.40909 9.88068 1.41477 8.59091C1.40909 7.53409 1.69034 6.6108 2.25852 5.82102C2.83239 5.03125 3.61932 4.41477 4.61932 3.97159C5.61932 3.52841 6.75568 3.30682 8.02841 3.30682C9.32386 3.30682 10.4545 3.52841 11.4205 3.97159C12.392 4.41477 13.1477 5.03125 13.6875 5.82102C14.2273 6.6108 14.5057 7.52557 14.5227 8.56534H10.9858ZM21.5261 13.4318V21H17.8954V3.54545H21.4238V10.2188H21.5772C21.8727 9.44602 22.35 8.84091 23.0091 8.40341C23.6682 7.96023 24.4949 7.73864 25.4892 7.73864C26.3983 7.73864 27.1909 7.9375 27.867 8.33523C28.5488 8.72727 29.0772 9.29261 29.4522 10.0312C29.8329 10.7642 30.0204 11.642 30.0147 12.6648V21H26.3841V13.3125C26.3897 12.5057 26.1852 11.8778 25.7704 11.429C25.3613 10.9801 24.7875 10.7557 24.0488 10.7557C23.5545 10.7557 23.117 10.8608 22.7363 11.071C22.3613 11.2812 22.0659 11.5881 21.85 11.9915C21.6397 12.3892 21.5318 12.8693 21.5261 13.4318ZM46.2095 21V3.54545H53.0959C54.4198 3.54545 55.5476 3.7983 56.4794 4.30398C57.4113 4.80398 58.1215 5.5 58.6101 6.39204C59.1044 7.27841 59.3516 8.30114 59.3516 9.46023C59.3516 10.6193 59.1016 11.642 58.6016 12.5284C58.1016 13.4148 57.3772 14.1051 56.4283 14.5994C55.4851 15.0937 54.3431 15.3409 53.0022 15.3409H48.613V12.3835H52.4056C53.1158 12.3835 53.701 12.2614 54.1613 12.017C54.6272 11.767 54.9738 11.4233 55.201 10.9858C55.434 10.5426 55.5505 10.0341 55.5505 9.46023C55.5505 8.88068 55.434 8.375 55.201 7.94318C54.9738 7.50568 54.6272 7.16761 54.1613 6.92898C53.6953 6.68466 53.1044 6.5625 52.3885 6.5625H49.8999V21H46.2095Z" fill="black"/>
</svg>
