<svg width="130" height="24" viewBox="0 0 130 24" fill="none" xmlns="http://www.w3.org/2000/svg">
<path d="M38.9119 7.90909V10.6364H31.0284V7.90909H38.9119ZM32.8182 4.77273H36.4489V16.9773C36.4489 17.3125 36.5 17.5739 36.6023 17.7614C36.7045 17.9432 36.8466 18.071 37.0284 18.1449C37.2159 18.2187 37.4318 18.2557 37.6761 18.2557C37.8466 18.2557 38.017 18.2415 38.1875 18.2131C38.358 18.179 38.4886 18.1534 38.5795 18.1364L39.1506 20.8381C38.9688 20.8949 38.7131 20.9602 38.3835 21.0341C38.054 21.1136 37.6534 21.1619 37.1818 21.179C36.3068 21.2131 35.5398 21.0966 34.8807 20.8295C34.2273 20.5625 33.7188 20.1477 33.3551 19.5852C32.9915 19.0227 32.8125 18.3125 32.8182 17.4545V4.77273Z" fill="black"/>
<path d="M60.2386 17.233L60.2472 12.8778H60.7756L64.9688 7.90909H69.1364L63.5028 14.4886H62.642L60.2386 17.233ZM56.9489 21V3.54545H60.5795V21H56.9489ZM65.1307 21L61.2784 15.2983L63.6989 12.733L69.3835 21H65.1307Z" fill="black"/>
<path d="M75.7074 3.54545V21H72.017V3.54545H75.7074ZM78.7988 6.58807V3.54545H93.1341V6.58807H87.7903V21H84.1426V6.58807H78.7988Z" fill="#0588D9"/>
<path d="M42.75 11.675V19.9584C42.75 20.1131 42.8115 20.2615 42.9209 20.3709C43.0303 20.4803 43.1786 20.5417 43.3333 20.5417H52.6667C52.8214 20.5417 52.9697 20.4803 53.0791 20.3709C53.1885 20.2615 53.25 20.1131 53.25 19.9584V11.675H42.75Z" stroke="black" stroke-width="1.5" stroke-linejoin="round"/>
<path d="M53.25 11.675L51.5971 9.45837H44.4029L42.75 11.675M50.2035 13.6C50.2035 14.8245 49.2171 15.8167 48 15.8167C46.7829 15.8167 45.7962 14.8245 45.7962 13.6" stroke="black" stroke-width="1.5" stroke-linecap="round" stroke-linejoin="round"/>
</svg>
