<svg width="118" height="24" viewBox="0 0 118 24" fill="none" xmlns="http://www.w3.org/2000/svg">
<path d="M10.875 10.2V19.6666C10.875 19.8434 10.9408 20.013 11.0581 20.138C11.1753 20.263 11.3342 20.3333 11.5 20.3333H21.5C21.6658 20.3333 21.8247 20.263 21.9419 20.138C22.0592 20.013 22.125 19.8434 22.125 19.6666V10.2H10.875Z" stroke="black" stroke-width="1.5" stroke-linejoin="round"/>
<path d="M22.125 10.2L20.3541 7.66663H12.6459L10.875 10.2M18.8609 12.4C18.8609 13.7993 17.8041 14.9333 16.5 14.9333C15.1959 14.9333 14.1388 13.7993 14.1388 12.4" stroke="black" stroke-width="1.5" stroke-linecap="round" stroke-linejoin="round"/>
<path d="M8.41193 7.90909V10.6364H0.528409V7.90909H8.41193ZM2.31818 4.77273H5.94886V16.9773C5.94886 17.3125 6 17.5739 6.10227 17.7614C6.20455 17.9432 6.34659 18.071 6.52841 18.1449C6.71591 18.2187 6.93182 18.2557 7.17614 18.2557C7.34659 18.2557 7.51705 18.2415 7.6875 18.2131C7.85795 18.179 7.98864 18.1534 8.07955 18.1364L8.65057 20.8381C8.46875 20.8949 8.21307 20.9602 7.88352 21.0341C7.55398 21.1136 7.15341 21.1619 6.68182 21.179C5.80682 21.2131 5.03977 21.0966 4.38068 20.8295C3.72727 20.5625 3.21875 20.1477 2.85511 19.5852C2.49148 19.0227 2.3125 18.3125 2.31818 17.4545V4.77273ZM27.3361 17.233L27.3447 12.8778H27.8731L32.0662 7.90909H36.2339L30.6003 14.4886H29.7395L27.3361 17.233ZM24.0464 21V3.54545H27.677V21H24.0464ZM32.2282 21L28.3759 15.2983L30.7964 12.733L36.481 21H32.2282Z" fill="black"/>
<path d="M42.2074 3.54545V21H38.517V3.54545H42.2074ZM45.2988 6.58807V3.54545H59.6341V6.58807H54.2903V21H50.6426V6.58807H45.2988Z" fill="#0588D9"/>
</svg>
